<?xml version="1.0" standalone="no"?>
<!DOCTYPE svg PUBLIC "-//W3C//DTD SVG 20010904//EN"
 "http://www.w3.org/TR/2001/REC-SVG-20010904/DTD/svg10.dtd">
<svg version="1.0" xmlns="http://www.w3.org/2000/svg"
 width="364.000000pt" height="256.000000pt" viewBox="0 0 364.000000 256.000000"
 preserveAspectRatio="xMidYMid meet">

<g transform="translate(0.000000,256.000000) scale(0.100000,-0.100000)"
fill="#000000" stroke="none">
<path d="M450 2464 c0 -3 44 -52 97 -110 l97 -104 68 0 c37 0 68 2 68 5 0 3
-34 52 -76 110 l-75 105 -90 0 c-49 0 -89 -3 -89 -6z"/>
<path d="M1620 2416 c-212 -37 -235 -43 -238 -61 -1 -11 8 -99 22 -195 21
-159 29 -191 87 -350 34 -96 63 -176 64 -178 3 -3 479 79 484 83 2 3 -1 62 -6
132 -6 70 -9 129 -8 131 4 5 101 18 525 72 217 28 400 52 406 54 7 3 -4 60
-29 163 -22 87 -41 159 -42 161 -1 1 -203 -45 -449 -103 -246 -58 -453 -105
-460 -105 -7 0 -34 51 -60 113 -27 61 -51 114 -54 118 -4 3 -113 -13 -242 -35z"/>
<path d="M837 2393 l-48 -4 106 -154 c58 -85 105 -157 105 -160 0 -3 -15 -5
-33 -5 -19 0 -36 -3 -40 -6 -6 -6 44 -62 287 -326 l89 -98 54 0 c29 0 53 4 53
9 0 5 -45 82 -100 172 -55 90 -100 167 -100 171 0 4 18 8 41 8 30 0 40 4 36
13 -3 7 -45 97 -93 200 l-88 187 -111 -2 c-60 -1 -132 -3 -158 -5z"/>
<path d="M542 2151 l-53 -6 315 -227 c173 -126 317 -228 321 -228 4 0 -96 106
-222 235 -256 263 -221 241 -361 226z"/>
<path d="M650 1716 c-19 -36 -32 -67 -29 -71 4 -3 78 -4 165 -3 l159 3 -128
68 c-70 37 -128 67 -130 67 -1 0 -18 -29 -37 -64z"/>
<path d="M918 1448 l-3 -83 -312 -3 -313 -2 0 -43 c1 -133 61 -280 146 -355
70 -63 242 -152 375 -196 l104 -34 3 -51 3 -51 179 0 179 0 16 -30 c18 -34 19
-79 4 -113 -21 -45 -44 -52 -214 -57 l-160 -5 0 -193 0 -192 995 0 995 0 0
192 0 193 -169 3 -168 2 7 77 c34 364 267 585 701 665 l64 11 0 89 0 88 -212
2 -213 3 -3 83 -3 82 -999 0 -999 0 -3 -82z"/>
</g>
</svg>
